# Blender v2.79 (sub 0) OBJ File: ''
# www.blender.org
mtllib paper_airplane.mtl
o paper_airplane
v -24.212046 16.826519 6.255484
v -11.247397 5.923955 12.470352
v -2.612807 -23.839249 14.484131
v -14.773720 25.099049 3.544651
v 27.118097 4.494318 6.865911
v -3.289211 14.221150 10.234149
v 36.733845 -21.001743 21.655706
v 46.370193 -13.715111 12.900668
v -33.908855 31.894173 -11.476619
v 25.893211 -31.435102 24.757647
v 31.783287 -31.078737 5.060151
v -9.355345 11.478214 2.625355
v -10.374226 10.412369 3.248480
v 16.912186 -42.306793 20.604431
vt 0.181083 0.774342
vt 0.000000 0.805509
vt 0.000000 0.643714
vt 0.807452 0.776346
vt 1.000000 0.639002
vt 1.000000 0.834296
vt 0.800864 0.000000
vt 1.000000 0.000000
vt 0.493902 1.000000
vt 0.179276 0.000000
vt 0.492937 0.000000
vt 1.000000 1.000000
vt 0.000000 1.000000
vt 0.000000 0.000000
vn 0.4862 0.0822 -0.8700
vn -0.2974 -0.7079 -0.6406
vn 0.2272 0.5513 0.8028
vn 0.6342 0.7354 0.2385
vn -0.6503 -0.5241 0.5498
vn 0.6624 0.3095 -0.6822
vn -0.4552 -0.7849 -0.4205
vn -0.3412 -0.0092 0.9399
usemtl None
s off
f 1/1/1 2/2/1 3/3/1
f 4/4/2 5/5/2 6/6/2
f 7/7/3 8/8/3 5/5/3 4/4/3
f 9/9/4 1/1/4 10/10/4 11/11/4
f 4/4/5 9/9/5 11/11/5 7/7/5
f 6/6/6 12/12/6 9/9/6 4/4/6
f 1/1/7 9/9/7 13/13/7 2/2/7
f 1/1/8 3/3/8 14/14/8 10/10/8
