# Blender v2.79 (sub 0) OBJ File: ''
# www.blender.org
mtllib paper_airplane.mtl
o paper_airplane
v -1.370959 0.952768 0.354204
v -0.636862 0.335432 0.706109
v -0.147945 -1.349850 0.820135
v -0.836533 1.421184 0.200709
v 1.535509 0.254482 0.388769
v -0.186245 0.805245 0.579488
v 2.079982 -1.189182 1.226212
v 2.625621 -0.776591 0.730475
v -1.920022 1.805945 -0.649841
v 1.466152 -1.779950 1.401853
v 1.799666 -1.759772 0.286521
v -0.529728 0.649931 0.148656
v -0.587420 0.589580 0.183939
v 0.957619 -2.395538 1.166685
vt 0.181083 0.774342
vt 0.000000 0.805509
vt 0.000000 0.643714
vt 0.807452 0.776346
vt 1.000000 0.639002
vt 1.000000 0.834296
vt 0.800864 0.000000
vt 1.000000 0.000000
vt 0.493902 1.000000
vt 0.179276 0.000000
vt 0.492937 0.000000
vt 1.000000 1.000000
vt 0.000000 1.000000
vt 0.000000 0.000000
vn 0.4862 0.0822 -0.8700
vn -0.2974 -0.7079 -0.6406
vn 0.2272 0.5513 0.8028
vn 0.6343 0.7354 0.2385
vn -0.6503 -0.5241 0.5498
vn 0.6624 0.3095 -0.6822
vn -0.4552 -0.7849 -0.4205
vn -0.3412 -0.0092 0.9399
usemtl None
s off
f 1/1/1 2/2/1 3/3/1
f 4/4/2 5/5/2 6/6/2
f 7/7/3 8/8/3 5/5/3 4/4/3
f 9/9/4 1/1/4 10/10/4 11/11/4
f 4/4/5 9/9/5 11/11/5 7/7/5
f 6/6/6 12/12/6 9/9/6 4/4/6
f 1/1/7 9/9/7 13/13/7 2/2/7
f 1/1/8 3/3/8 14/14/8 10/10/8
